<svg width="72" height="72" viewBox="0 0 72 72" fill="none" xmlns="http://www.w3.org/2000/svg">
<path d="M5.78906 58.8261C5.78906 51.4191 10.1279 44.6989 16.8784 41.6503L19.0991 40.6474C29.2085 36.0818 40.7926 36.0818 50.902 40.6474L53.1227 41.6503C59.8732 44.6989 64.212 51.4191 64.212 58.8261V66.4468C64.212 67.4876 63.3683 68.3314 62.3274 68.3314H7.67368C6.63283 68.3314 5.78906 67.4876 5.78906 66.4468V58.8261Z" fill="#07A09A"/>
<path d="M26.0479 35.3505C26.0479 34.9736 26.6761 32.9948 26.9902 32.0525C29.503 30.9531 35.094 28.7544 37.3555 28.7544C39.6171 28.7544 42.3812 32.2095 43.4805 33.9371C43.7946 36.4499 44.3286 41.9467 43.9517 43.8313C43.4805 46.1871 40.1824 47.1294 38.2978 47.6005C36.4132 48.0717 33.5863 47.1294 32.1728 46.1871C30.7594 45.2448 26.0479 35.8217 26.0479 35.3505Z" fill="#43B8B4"/>
<path d="M35.0001 63.6198L23.6924 39.1198L26.5193 33.9371C28.718 37.7064 33.5866 45.1506 35.4712 44.7737C37.3558 44.3967 41.5962 37.3923 43.4808 33.9371L46.3077 39.1198L35.0001 63.6198Z" fill="#07A09A"/>
<path d="M23.2208 27.8121C18.3208 25.5506 20.2368 22.7865 21.8073 21.6871L25.5766 17.918C26.99 16.5045 28.8746 16.0334 32.6438 13.6776C36.4131 11.3218 38.2977 10.8506 40.1823 10.3795C42.0669 9.90832 43.4804 11.3218 44.4227 12.2641C45.1765 13.0179 47.5637 18.8602 48.663 21.6871C51.3015 24.7025 48.506 27.0269 46.7784 27.8121C45.522 31.5814 41.4073 39.1198 34.9996 39.1198C28.5919 39.1198 24.4772 31.5814 23.2208 27.8121Z" fill="#07A09A"/>
<path d="M32.6445 15.5621C24.3523 15.5621 22.7503 22.4724 22.7503 25.9275C20.1119 17.6352 22.4362 11.1647 24.1638 8.966C28.6869 2.1814 37.8272 0.485251 44.4234 7.55252C45.0516 7.39547 46.6849 7.64675 48.1926 9.90829C50.4541 15.5621 48.5067 22.9435 47.2503 25.9275C47.6272 18.766 44.5804 13.8346 43.0099 12.2641C43.0099 13.3634 39.2407 15.5621 32.6445 15.5621Z" fill="#43B8B4"/>
<path d="M33.1155 59.3794L24.6348 41.0044L30.7598 49.9563L32.6444 48.5428L34.0578 49.9563L33.1155 59.3794Z" fill="#43B8B4"/>
<path d="M36.8845 59.3794L45.3652 41.0044L39.2402 49.9563L37.3556 48.5428L35.9422 49.9563L36.8845 59.3794Z" fill="#43B8B4"/>
<path d="M21.8078 39.5909C22.7501 41.9467 17.5674 47.0352 17.5674 52.3121" stroke="white" stroke-width="2.82692"/>
<circle cx="17.5676" cy="54.6679" r="2.35576" fill="#07A09A" stroke="white" stroke-width="1.88461"/>
<circle cx="46.7785" cy="58.4371" r="3.29807" fill="white"/>
<circle cx="56.2024" cy="57.4949" r="3.29807" fill="white"/>
<path d="M34.9998 63.6198L37.3555 59.3794L36.4132 49.4852L37.8267 47.6006L34.9998 44.7737L32.1729 47.6006L33.5863 49.4852L32.644 59.3794L34.9998 63.6198Z" fill="white"/>
<path d="M51.9614 41.0044L49.3378 45.7159M49.3378 45.7159C47.1391 46.6582 43.4955 50.4275 46.5109 57.9659M49.3378 45.7159C51.5365 45.5589 56.0282 47.4121 56.4051 56.0813" stroke="white" stroke-width="2.82692"/>
</svg>
