<svg width="180" height="48" viewBox="0 0 180 48" fill="none" xmlns="http://www.w3.org/2000/svg">
<path d="M79.1421 28.4951V31H69.3638V28.4951H79.1421ZM79.0771 19.1621L70.978 31H68.6216V29.2837L76.8135 17.4922H79.0771V19.1621ZM78.0288 17.4922V20.0063H68.5752V17.4922H78.0288ZM86.4805 20.3311L83.187 31H79.6895L84.6528 17.4922H86.8701L86.4805 20.3311ZM89.208 31L85.9053 20.3311L85.4785 17.4922H87.7236L92.7148 31H89.208ZM89.0781 25.9624V28.4766H82.1479V25.9624H89.0781ZM99.0977 26.417H95.7393V23.9028H99.0977C99.5553 23.9028 99.9264 23.8255 100.211 23.6709C100.495 23.5163 100.703 23.3029 100.833 23.0308C100.969 22.7524 101.037 22.4401 101.037 22.0938C101.037 21.7227 100.969 21.3794 100.833 21.064C100.703 20.7485 100.495 20.495 100.211 20.3032C99.9264 20.1053 99.5553 20.0063 99.0977 20.0063H96.9639V31H93.7075V17.4922H99.0977C100.18 17.4922 101.111 17.6901 101.89 18.0859C102.676 18.4818 103.279 19.026 103.699 19.7188C104.12 20.4053 104.33 21.1908 104.33 22.0752C104.33 22.9473 104.12 23.708 103.699 24.3574C103.279 25.0068 102.676 25.514 101.89 25.8789C101.111 26.2376 100.18 26.417 99.0977 26.417ZM117.513 23.9771V24.5244C117.513 25.5573 117.368 26.485 117.077 27.3076C116.793 28.124 116.388 28.8229 115.862 29.4043C115.336 29.9795 114.715 30.4217 113.997 30.731C113.28 31.034 112.488 31.1855 111.622 31.1855C110.75 31.1855 109.952 31.034 109.229 30.731C108.511 30.4217 107.886 29.9795 107.354 29.4043C106.829 28.8229 106.421 28.124 106.13 27.3076C105.845 26.485 105.703 25.5573 105.703 24.5244V23.9771C105.703 22.9442 105.845 22.0164 106.13 21.1938C106.421 20.3713 106.826 19.6724 107.345 19.0972C107.871 18.5158 108.493 18.0736 109.21 17.7705C109.934 17.4613 110.731 17.3066 111.604 17.3066C112.469 17.3066 113.261 17.4613 113.979 17.7705C114.702 18.0736 115.327 18.5158 115.853 19.0972C116.378 19.6724 116.786 20.3713 117.077 21.1938C117.368 22.0164 117.513 22.9442 117.513 23.9771ZM114.21 24.5244V23.9585C114.21 23.2905 114.152 22.703 114.034 22.1958C113.923 21.6825 113.756 21.2526 113.533 20.9062C113.311 20.5599 113.035 20.3001 112.708 20.127C112.386 19.9476 112.018 19.8579 111.604 19.8579C111.171 19.8579 110.793 19.9476 110.472 20.127C110.15 20.3001 109.881 20.5599 109.665 20.9062C109.448 21.2526 109.284 21.6825 109.173 22.1958C109.068 22.703 109.015 23.2905 109.015 23.9585V24.5244C109.015 25.1862 109.068 25.7738 109.173 26.2871C109.284 26.7943 109.448 27.2241 109.665 27.5767C109.887 27.9292 110.159 28.1951 110.481 28.3745C110.809 28.5539 111.189 28.6436 111.622 28.6436C112.036 28.6436 112.404 28.5539 112.726 28.3745C113.048 28.1951 113.317 27.9292 113.533 27.5767C113.756 27.2241 113.923 26.7943 114.034 26.2871C114.152 25.7738 114.21 25.1862 114.21 24.5244ZM121.243 17.4922L123.729 23.3555L126.225 17.4922H129.731L125.39 26.1479V31H122.078V26.1479L117.727 17.4922H121.243ZM128.627 29.5342C128.627 29.0889 128.788 28.7178 129.11 28.4209C129.431 28.1178 129.846 27.9663 130.353 27.9663C130.866 27.9663 131.281 28.1178 131.596 28.4209C131.918 28.7178 132.079 29.0889 132.079 29.5342C132.079 29.9795 131.918 30.3537 131.596 30.6567C131.281 30.9536 130.866 31.1021 130.353 31.1021C129.846 31.1021 129.431 30.9536 129.11 30.6567C128.788 30.3537 128.627 29.9795 128.627 29.5342ZM141.282 27.4097C141.282 27.1994 141.251 27.0107 141.189 26.8438C141.127 26.6706 141.013 26.5098 140.846 26.3613C140.679 26.2129 140.438 26.0645 140.122 25.916C139.813 25.7614 139.405 25.6006 138.897 25.4336C138.304 25.2357 137.732 25.013 137.181 24.7656C136.631 24.512 136.139 24.2183 135.706 23.8843C135.273 23.5441 134.93 23.1483 134.676 22.6968C134.423 22.2391 134.296 21.7072 134.296 21.1011C134.296 20.5197 134.426 19.9971 134.686 19.5332C134.945 19.0632 135.307 18.6642 135.771 18.3364C136.241 18.0024 136.792 17.7489 137.422 17.5757C138.053 17.3963 138.743 17.3066 139.491 17.3066C140.481 17.3066 141.353 17.4798 142.107 17.8262C142.868 18.1663 143.462 18.6519 143.889 19.2827C144.322 19.9074 144.538 20.6465 144.538 21.5H141.3C141.3 21.1598 141.229 20.8599 141.087 20.6001C140.951 20.3403 140.744 20.1362 140.465 19.9878C140.187 19.8394 139.838 19.7651 139.417 19.7651C139.009 19.7651 138.666 19.827 138.387 19.9507C138.109 20.0744 137.899 20.2414 137.756 20.4517C137.614 20.6558 137.543 20.8815 137.543 21.1289C137.543 21.333 137.599 21.5186 137.71 21.6855C137.827 21.8464 137.991 21.9979 138.202 22.1401C138.418 22.2824 138.678 22.4185 138.981 22.5483C139.29 22.6782 139.637 22.805 140.02 22.9287C140.737 23.1576 141.375 23.4142 141.931 23.6987C142.494 23.9771 142.967 24.2956 143.351 24.6543C143.74 25.0068 144.034 25.4089 144.232 25.8604C144.436 26.3118 144.538 26.8221 144.538 27.3911C144.538 27.9972 144.421 28.5353 144.186 29.0054C143.951 29.4754 143.613 29.8743 143.174 30.2021C142.735 30.5238 142.209 30.7681 141.597 30.9351C140.985 31.1021 140.301 31.1855 139.547 31.1855C138.854 31.1855 138.171 31.099 137.497 30.9258C136.829 30.7464 136.222 30.4743 135.678 30.1094C135.134 29.7383 134.698 29.2651 134.37 28.6899C134.049 28.1086 133.888 27.4189 133.888 26.6211H137.153C137.153 27.0169 137.206 27.3509 137.311 27.623C137.416 27.8952 137.571 28.1147 137.775 28.2817C137.979 28.4425 138.229 28.5601 138.526 28.6343C138.823 28.7023 139.163 28.7363 139.547 28.7363C139.961 28.7363 140.295 28.6776 140.549 28.5601C140.802 28.4364 140.988 28.2756 141.105 28.0776C141.223 27.8735 141.282 27.6509 141.282 27.4097ZM149.678 17.4922V31H146.431V17.4922H149.678ZM158.231 17.4922V31H154.975V17.4922H158.231ZM162.295 17.4922V20.0063H151.004V17.4922H162.295ZM172.973 28.4951V31H165.774V28.4951H172.973ZM166.934 17.4922V31H163.677V17.4922H166.934ZM172.045 22.8545V25.2759H165.774V22.8545H172.045ZM173.001 17.4922V20.0063H165.774V17.4922H173.001Z" fill="#31373D"/>
<path fill-rule="evenodd" clip-rule="evenodd" d="M34 0H10C4.47715 0 0 4.47715 0 10V30C0.124726 30 0.47572 29.9179 1.05406 29.2719C1.60922 28.6517 2.18969 27.7117 2.77186 26.5177C3.931 24.1402 4.94145 21.086 5.74811 18.4468C6.1961 16.9811 7.41772 16.0944 8.75611 16.0316C10.0928 15.9688 11.3917 16.7346 11.9806 18.1456L13.5562 21.9207C13.7258 22.3271 14.2999 22.3316 14.4759 21.928L16.7455 16.7249C17.8876 14.1065 21.5161 13.8853 22.9679 16.3455L26.4054 22.1709C27.5731 19.6144 31.3011 19.9247 32.0296 22.64L33.9552 29.8172C33.9682 29.8655 33.9834 29.9061 34 29.9406V0ZM34 33.1636C32.7013 33.0136 31.4806 32.171 31.0577 30.5946L29.1329 23.4202C28.1254 25.6241 25.0546 25.7849 23.8227 23.6973L20.3842 17.8701C20.1768 17.5186 19.6584 17.5502 19.4953 17.9243L17.2257 23.1274C15.9933 25.9527 11.9748 25.9207 10.7876 23.0762L9.21208 19.3011C9.15063 19.1539 9.07907 19.0929 9.03808 19.0669C8.99207 19.0376 8.94341 19.0261 8.89689 19.0283C8.85044 19.0304 8.80475 19.0463 8.76389 19.0782C8.7278 19.1063 8.66348 19.1719 8.61709 19.3237C7.80799 21.9709 6.74015 25.224 5.46843 27.8324C4.83517 29.1312 4.11207 30.3537 3.28926 31.2728C2.48964 32.166 1.38828 33 0 33V38C0 43.5228 4.47715 48 10 48H34V33.1636ZM37 48V32.112C37.454 31.6321 37.7823 30.9941 37.9 30.2028L39.04 22.5422C39.1094 22.0762 39.7258 21.956 39.9652 22.3618L41.192 24.4415C42.1781 26.1131 44.3361 26.6631 46.0021 25.6675L48 24.4735V38C48 43.5229 43.5228 48 38 48H37ZM37 20.182V0H38C43.5229 0 48 4.47715 48 10V20.9786L44.4631 23.0923C44.2251 23.2346 43.9168 23.156 43.7759 22.9172L42.5491 20.8375C41.2771 18.6813 38.4842 18.6467 37 20.182Z" fill="#07A09A"/>
</svg>
