<svg width="72" height="72" viewBox="0 0 72 72" fill="none" xmlns="http://www.w3.org/2000/svg">
<circle cx="37.5" cy="36.5" r="30.5" fill="#89D3D0"/>
<circle cx="35.5" cy="34.5" r="28.5" fill="#07A09A"/>
<path d="M33 30C33 32.7614 30.7614 35 28 35C25.2386 35 23 32.7614 23 30C23 27.2386 25.2386 25 28 25C30.7614 25 33 27.2386 33 30Z" fill="#89D3D0"/>
<path d="M40 30C40 32.7614 42.2386 35 45 35C47.7614 35 50 32.7614 50 30C50 27.2386 47.7614 25 45 25C42.2386 25 40 27.2386 40 30Z" fill="#89D3D0"/>
<path d="M30.5346 25.6874C28.5642 23.1062 23.8023 22.1536 21.6677 22C19.2046 22 19.6972 25.2265 21.6677 24.7655C23.244 24.3968 24.6233 24.9192 25.1159 25.2265C27.7432 26.4556 32.5051 28.2686 30.5346 25.6874Z" fill="#89D3D0"/>
<path d="M42.4654 25.6874C44.4358 23.1062 49.1977 22.1536 51.3323 22C53.7954 22 53.3028 25.2265 51.3323 24.7655C49.756 24.3968 48.3767 24.9192 47.8841 25.2265C45.2568 26.4556 40.4949 28.2686 42.4654 25.6874Z" fill="#89D3D0"/>
<path d="M25 46.6348C25 45.6421 25.5889 44.744 26.4992 44.3482L27.2116 44.0384C33.136 41.4626 39.864 41.4626 45.7884 44.0384L46.5008 44.3482C47.4111 44.744 48 45.6421 48 46.6348C48 48.3092 46.3824 49.5077 44.7806 49.0202L39.9705 47.5562C37.7081 46.8677 35.2919 46.8677 33.0295 47.5562L28.2194 49.0202C26.6176 49.5077 25 48.3092 25 46.6348Z" fill="#89D3D0"/>
</svg>
