<svg width="72" height="72" viewBox="0 0 72 72" fill="none" xmlns="http://www.w3.org/2000/svg">
<rect x="20" y="15" width="33" height="45" fill="#07A09A"/>
<path d="M27.1005 32.5H20V41.5H26.9789C28.8987 41.5 30.7252 42.3288 31.9894 43.7736C34.642 46.8052 39.358 46.8052 42.0106 43.7736C43.2748 42.3288 45.1013 41.5 47.0211 41.5H53V32.5H46.8995C45.043 32.5 43.2625 31.7625 41.9497 30.4497C39.2161 27.7161 34.7839 27.7161 32.0503 30.4497C30.7375 31.7625 28.957 32.5 27.1005 32.5Z" fill="#89D3D0"/>
<path d="M23 9H50L53 15H20L23 9Z" fill="#89D3D0"/>
<path d="M50 66H23L20 60H53L50 66Z" fill="#89D3D0"/>
<rect x="21" y="5" width="30" height="4" rx="2" fill="#07A09A"/>
</svg>
