<svg width="72" height="72" viewBox="0 0 72 72" fill="none" xmlns="http://www.w3.org/2000/svg">
<path d="M64.83 24.6785C62.4604 21.6055 59.9703 18.9912 57.3724 16.8423C57.2867 16.7587 57.1937 16.6827 57.0948 16.6152C46.481 7.99598 34.6554 7.59675 22.3045 13.3342C15.6114 14.4051 10.9124 17.7838 8.32919 23.3831C2.59251 30.0242 1.43463 36.896 7.30216 43.6564C10.2226 48.9046 15.0884 49.7772 20.6905 47.2987C22.9833 51.5168 27.1903 53.8631 34.4353 52.2874C36.2552 54.5928 39.5536 54.9025 41.5745 54.9299L47.7093 61.7351C47.9026 61.9496 48.139 62.1212 48.4029 62.2386C48.6668 62.356 48.9524 62.4167 49.2412 62.4166H53.5622C54.8927 62.4166 55.8785 61.1721 55.5683 59.8744L55.0083 57.5325C65.3501 55.3584 70.8707 46.0863 66.2885 40.7045C70.5204 35.5921 69.6193 29.3981 64.83 24.6785Z" fill="#89D3D0"/>
<path d="M47.7091 61.7351C47.9025 61.9496 48.1388 62.1212 48.4027 62.2386C48.6666 62.356 48.9522 62.4167 49.2411 62.4166H53.5621C54.8925 62.4166 55.8783 61.1721 55.5682 59.8744L55.0082 57.5325C65.0682 55.4177 70.6498 46.5294 66.5693 41.0586C63.8436 39.8982 60.9619 38.2341 59.5165 36.0231C56.3161 31.128 55.2919 38.1018 52.4756 40.1501C49.6593 42.1983 39.162 46.1667 24.6963 37.0889C10.2306 28.011 14.071 41.1743 10.4866 38.6506C8.50848 37.2578 6.49837 38.8383 5.09375 40.5342C5.67746 41.5905 6.41316 42.6321 7.30213 43.6563C10.2226 48.9044 15.0884 49.777 20.6905 47.2986C22.9833 51.5167 27.1903 53.863 34.4352 52.2873C36.2552 54.5926 39.5535 54.9024 41.5745 54.9297L47.7091 61.7351Z" fill="#89D3D0"/>
<path d="M64.8316 24.6785C62.4621 21.6055 59.9719 18.9912 57.3741 16.8423C57.2883 16.7587 57.1954 16.6827 57.0964 16.6152C46.4826 7.99598 34.6571 7.59675 22.3061 13.3342C17.9084 14.0377 14.3719 15.7378 11.7305 18.4092C12.7598 18.7977 14.2549 19.1821 16.3769 19.5397C27.7703 21.46 29.0505 11.9868 34.6831 17.2354C40.3158 22.4841 43.9001 26.5805 50.173 27.3487C56.4458 28.1168 52.4772 20.1222 59.006 25.9117C61.7286 28.3259 64.9627 28.8911 67.7158 28.5114C67.0244 27.1749 66.0587 25.8878 64.8316 24.6785Z" fill="#89D3D0"/>
<path d="M25.1649 35.7044C24.1015 36.1129 23.5706 37.3061 23.9792 38.3693C24.6643 40.1531 22.5271 41.7926 21.1563 42.4802C19.2182 43.452 19.9142 46.387 22.0826 46.387C22.3934 46.387 22.7089 46.3163 23.0056 46.1676C27.2125 44.0578 29.1513 40.3294 27.8301 36.8902C27.4215 35.8267 26.2285 35.2954 25.1649 35.7044ZM49.6575 39.017C51.252 34.7187 50.6122 29.8875 46.6322 27.7757C45.6257 27.2416 44.3773 27.6247 43.8435 28.631C43.3095 29.6373 43.6925 30.8858 44.6988 31.4197C46.655 32.4577 46.5734 35.1739 45.8818 37.311C41.3777 35.9904 37.3841 37.2252 35.5789 40.5593C35.0364 41.5611 35.4088 42.8127 36.4106 43.3551C37.4124 43.8971 38.664 43.5251 39.2064 42.5234C41.4354 38.4058 51.2244 42.9912 50.5015 47.054C50.2772 48.3137 51.2444 49.4784 52.5345 49.4784C53.5153 49.4784 54.3849 48.7762 54.5628 47.7769C55.1931 44.2354 52.8533 41.0351 49.6575 39.017ZM37.5881 32.7047C38.6252 32.2337 39.0841 31.011 38.6132 29.9739C38.1423 28.9366 36.9197 28.4776 35.8823 28.9486C35.019 29.3408 33.9653 28.5404 33.2167 27.4351C34.2614 25.9736 34.5893 24.2612 34.0541 22.5731C33.7098 21.4871 32.5506 20.8864 31.4645 21.2303C30.3787 21.5748 29.7776 22.7341 30.1219 23.8199C30.5337 25.1183 28.4822 26.1965 28.247 26.3151C26.4612 27.2158 24.5792 27.1333 24.0896 26.4578C23.4211 25.5354 22.1315 25.33 21.2091 25.9982C20.2868 26.6669 20.0811 27.9564 20.7497 28.8788C22.7683 31.6638 26.9189 31.564 30.0107 30.0441C31.8852 32.6046 34.7721 33.9831 37.5881 32.7047ZM40.9804 27.0642C42.2192 27.0642 43.1743 25.9859 43.0316 24.7625C42.4882 20.1033 44.0602 16.9898 47.9784 14.964C48.9903 14.4407 49.3865 13.1963 48.8633 12.1844C48.3402 11.1725 47.096 10.7761 46.0837 11.2995C40.6693 14.099 38.1969 18.9195 38.934 25.2404C39.0566 26.2907 39.9479 27.0642 40.9804 27.0642ZM61.225 32.9215C61.0074 31.8034 59.9241 31.073 58.8065 31.2909L55.5427 31.926C54.4245 32.1436 53.6944 33.2263 53.9121 34.3445C54.1037 35.3296 54.9671 36.0135 55.9345 36.0135C56.2178 36.0135 56.0853 36.0228 59.5945 35.3401C60.7124 35.1224 61.4426 34.0397 61.225 32.9215ZM52.602 25.9043C52.9157 25.9043 53.2342 25.8323 53.5331 25.6809C56.3367 24.2594 57.8806 21.7389 57.9979 18.3921C58.0379 17.2537 57.1473 16.2984 56.0088 16.2585C54.8675 16.2174 53.9152 17.1092 53.8752 18.2476C53.8101 20.1027 53.1293 21.2605 51.6675 22.0016C49.7385 22.9797 50.4382 25.9043 52.602 25.9043ZM16.6186 32.736C12.6096 32.736 10.7823 28.4906 12.0126 25.2396C12.4157 24.1741 11.8789 22.9837 10.8136 22.5805C9.74787 22.1771 8.55764 22.7141 8.15453 23.7795C5.8728 29.8092 9.76296 36.8613 16.6187 36.8613C17.7578 36.8613 18.6813 35.9379 18.6813 34.7988C18.6813 33.6596 17.7578 32.736 16.6186 32.736ZM22.911 17.3903C24.9698 17.3903 25.4868 18.3747 26.2702 19.4983C26.9177 20.4284 28.2022 20.6665 29.1414 20.0125C30.0763 19.3616 30.3065 18.0761 29.6556 17.1414C29.6099 17.0756 29.5623 17.0051 29.5122 16.9309C28.7081 15.7412 27.0353 13.2652 22.911 13.2652C21.7719 13.2652 20.8484 14.1886 20.8484 15.3277C20.8484 16.4669 21.7718 17.3903 22.911 17.3903Z" fill="#07A09A"/>
</svg>
