<svg width="72" height="72" viewBox="0 0 72 72" fill="none" xmlns="http://www.w3.org/2000/svg">
<path d="M5.78906 58.8261C5.78906 51.4191 10.1279 44.6989 16.8784 41.6503L19.0991 40.6474C29.2085 36.0818 40.7926 36.0818 50.902 40.6474L53.1227 41.6503C59.8732 44.6989 64.212 51.4191 64.212 58.8261V66.4468C64.212 67.4876 63.3683 68.3314 62.3274 68.3314H7.67368C6.63283 68.3314 5.78906 67.4876 5.78906 66.4468V58.8261Z" fill="#07A09A"/>
<path d="M23.2208 27.8121C18.3208 25.5506 20.2368 22.7865 21.8073 21.6871C22.5926 20.9019 23.378 15.8675 24.5088 14.7367C25.9223 13.3232 28.8746 16.0334 32.6438 13.6776C36.4131 11.3218 38.2977 10.8506 40.1823 10.3795C42.0669 9.90832 43.4804 11.3218 44.4227 12.2641C45.1765 13.0179 47.5637 18.8602 48.663 21.6871C51.3015 24.7025 48.506 27.0269 46.7784 27.8121C45.522 31.5814 41.4073 39.1198 34.9996 39.1198C28.5919 39.1198 24.4772 31.5814 23.2208 27.8121Z" fill="#07A09A"/>
<circle cx="46.7785" cy="58.4371" r="3.29807" fill="white"/>
<circle cx="56.2024" cy="57.4949" r="3.29807" fill="white"/>
<path d="M51.9614 41.0044L49.3378 45.7159M49.3378 45.7159C47.1391 46.6582 43.4955 50.4275 46.5109 57.9659M49.3378 45.7159C51.5365 45.5589 56.0282 47.4121 56.4051 56.0813" stroke="white" stroke-width="2.82692"/>
<path d="M23.6451 25.9274C23.5271 20.2679 24.7093 17.15 25.3151 16.2985C39.0701 19.2461 44.8023 18.5092 45.9491 17.7723L47.1773 25.9274C48.317 23.4514 48.6674 19.0987 48.7002 17.2319C48.7002 6.14884 29.8846 0.381351 24.0385 11.1402C19.3223 15.8171 21.8112 22.947 23.6451 25.9274Z" fill="#43B8B4"/>
<path d="M31.1521 68.3314L26.2637 42.3015C30.2908 46.4433 39.35 46.4721 43.3767 42.3015L38.4872 68.3314H31.1521Z" fill="#43B8B4"/>
<path d="M25.9492 40.5358L26.3613 43.0521C30.4331 46.7578 40.3153 45.6598 43.3348 43.0521L43.5636 40.856C35.9141 44.8089 28.6334 42.2895 25.9492 40.5358Z" fill="#07A09A"/>
<path d="M25.8574 33.4902L26.3607 40.6014C30.4325 44.3072 40.3146 43.2091 43.3342 40.6014L43.7002 33.8105C36.0507 37.7634 28.5416 35.244 25.8574 33.4902Z" fill="#43B8B4"/>
</svg>
