<svg width="72" height="72" viewBox="0 0 72 72" fill="none" xmlns="http://www.w3.org/2000/svg">
<path d="M41.7041 41.7034H27.446" stroke="white" stroke-width="3.6" stroke-linecap="round"/>
<path d="M20.3164 11.0839C20.3164 9.09566 21.9282 7.48389 23.9164 7.48389H48.0841C50.0724 7.48389 51.6842 9.09566 51.6842 11.0839V60.9161C51.6842 62.9044 50.0724 64.5161 48.0842 64.5161H43.1293V46.9548C43.1293 45.6294 42.0548 44.5549 40.7293 44.5549H31.2712C29.9458 44.5549 28.8712 45.6294 28.8712 46.9549V64.5161H23.9164C21.9282 64.5161 20.3164 62.9044 20.3164 60.9161V11.0839Z" fill="#07A09A"/>
<path d="M54.5361 18.8904H60.9168C62.905 18.8904 64.5168 20.5022 64.5168 22.4904V60.9162C64.5168 62.9044 62.905 64.5162 60.9168 64.5162H54.5361V18.8904Z" fill="#43B8B4"/>
<path d="M17.4648 18.8904H11.0842C9.09597 18.8904 7.4842 20.5022 7.4842 22.4904V60.9162C7.4842 62.9044 9.09597 64.5162 11.0842 64.5162H17.4648V18.8904Z" fill="#43B8B4"/>
<path d="M36 18.8904L36 33.1484" stroke="white" stroke-width="3" stroke-linecap="round"/>
<path d="M43.1299 26.0194H28.8718" stroke="white" stroke-width="3" stroke-linecap="round"/>
</svg>
