<svg width="72" height="72" viewBox="0 0 72 72" fill="none" xmlns="http://www.w3.org/2000/svg">
<path d="M12 43.7046L33.9406 23.1795C34.6775 22.4902 35.8225 22.4902 36.5594 23.1795L58.5 43.7046V62.5796C58.5 64.1674 57.2128 65.4546 55.625 65.4546H41.5909V52.8015C41.5909 51.5312 40.5612 50.5015 39.2909 50.5015H31.2091C29.9388 50.5015 28.9091 51.5312 28.9091 52.8015V65.4546H14.875C13.2872 65.4546 12 64.1674 12 62.5796V43.7046Z" fill="#07A09A"/>
<path d="M31.3352 9.38653L5.46103 34.966C4.07641 36.3349 3.99105 38.5431 5.26586 40.0147C6.65086 41.6136 9.09262 41.7262 10.6189 40.2616L32.6909 19.0813C34.1609 17.6707 36.4776 17.6564 37.9649 19.0488L60.7559 40.3856C62.2836 41.8158 64.6722 41.7705 66.1446 40.2832C67.6986 38.7136 67.6236 36.1632 65.9801 34.6875L56.625 26.2879V15.1351C56.625 12.857 54.7782 11.0101 52.5 11.0101C50.2218 11.0101 48.375 12.857 48.375 15.1351V17.9546L39.3532 9.32129C37.1037 7.16864 33.5494 7.19756 31.3352 9.38653Z" fill="#43B8B4"/>
</svg>
