<svg width="72" height="72" viewBox="0 0 72 72" fill="none" xmlns="http://www.w3.org/2000/svg">
<path d="M11.9189 13.5167C11.9189 11.2616 13.399 9.27387 15.5594 8.62742L22.6986 6.49122C31.0497 3.9924 39.9495 3.9924 48.3006 6.49122L55.4398 8.62742C57.6002 9.27387 59.0803 11.2616 59.0803 13.5167V48.7195C59.0803 49.984 58.4558 51.1669 57.4117 51.8801L46.1029 59.6053C45.5737 59.9668 45.2571 60.5664 45.2571 61.2073C45.2571 62.8146 43.9542 64.1175 42.3469 64.1175H39.5652V68.8389H31.434V64.1175H28.6523C27.045 64.1175 25.7421 62.8146 25.7421 61.2073C25.7421 60.5664 25.4256 59.9668 24.8963 59.6053L13.5875 51.8801C12.5434 51.1669 11.9189 49.984 11.9189 48.7195V13.5167Z" fill="#43B8B4"/>
<path d="M19.5049 15.5456C19.5049 15.2473 19.6818 14.9774 19.9554 14.8585C29.8703 10.5477 41.1301 10.5477 51.0451 14.8585C51.3186 14.9774 51.4955 15.2473 51.4955 15.5456V45.5974C51.4955 45.9136 51.3532 46.2131 51.108 46.4128L44.7366 51.6026C44.3213 51.9409 43.8022 52.1256 43.2666 52.1256H27.7338C27.1983 52.1256 26.6791 51.9409 26.2638 51.6026L19.8924 46.4128C19.6472 46.2131 19.5049 45.9136 19.5049 45.5974V15.5456Z" fill="#07A09A" stroke="white" stroke-width="3"/>
<path d="M35.4992 20.9169C41.5546 26.7256 47.2639 42.2155 35.4992 42.2155C23.7349 42.2155 29.444 26.7256 35.4992 20.9169Z" fill="white"/>
</svg>
