<svg width="72" height="72" viewBox="0 0 72 72" fill="none" xmlns="http://www.w3.org/2000/svg">
<path d="M33.9991 6.70408C34.7955 5.79993 36.2045 5.79993 37.0009 6.70408L42.891 13.3917C43.3407 13.9023 44.0192 14.1493 44.6919 14.0472L53.5027 12.7103C54.6939 12.5295 55.7733 13.4353 55.8022 14.6397L56.0156 23.5489C56.0318 24.2291 56.3928 24.8544 56.9738 25.2086L64.5826 29.8479C65.6113 30.4752 65.856 31.8628 65.1039 32.8041L59.5407 39.766C59.1159 40.2975 58.9905 41.0086 59.2079 41.6534L62.0545 50.0982C62.4393 51.2399 61.7348 52.4602 60.5536 52.6978L51.8169 54.4549C51.1498 54.5891 50.5967 55.0532 50.3488 55.6868L47.1012 63.9857C46.6621 65.1077 45.338 65.5896 44.2804 65.0123L36.4582 60.7426C35.861 60.4166 35.139 60.4166 34.5418 60.7426L26.7196 65.0123C25.662 65.5896 24.3379 65.1077 23.8988 63.9857L20.6512 55.6868C20.4033 55.0532 19.8502 54.5891 19.1831 54.4549L10.4464 52.6978C9.26523 52.4602 8.56069 51.2399 8.94554 50.0982L11.7921 41.6534C12.0095 41.0086 11.8841 40.2975 11.4593 39.766L5.89613 32.8041C5.144 31.8628 5.38868 30.4752 6.41737 29.8479L14.0262 25.2086C14.6072 24.8544 14.9682 24.2291 14.9844 23.5489L15.1978 14.6397C15.2267 13.4353 16.3061 12.5295 17.4973 12.7103L26.3081 14.0472C26.9808 14.1493 27.6593 13.9023 28.109 13.3917L33.9991 6.70408Z" fill="#07A09A"/>
<path d="M23 38.35L30.4561 46L48 28" stroke="white" stroke-width="3" stroke-linecap="round" stroke-linejoin="round"/>
</svg>
