<svg width="72" height="72" viewBox="0 0 72 72" fill="none" xmlns="http://www.w3.org/2000/svg">
<path d="M21.9997 29.9999C17.1997 29.1999 19.333 25.9999 20.9997 24.4999C23.4996 22.4999 21.9997 19.4999 21.9997 17.9999C21.9997 16.4999 22.9998 14.9999 24.4998 12.9999C25.6998 11.3999 26.6664 11.3333 26.9998 11.4999C28.6664 11.3333 32.5998 10.9999 34.9998 10.9999C37.9998 10.9999 42.4998 10.4999 45.9998 11.9999C48.7998 13.1999 49.1664 16.4999 48.9998 17.9999C48.9998 19.4999 49.2998 22.8999 50.4998 24.4999C55.2998 27.2999 51.8331 29.3333 49.4998 29.9999C48.6998 34.3999 46.1664 40.4999 44.9998 42.9999L42.4998 47.4999L28.9998 48.4999L26.9998 42.9999L21.9997 29.9999Z" fill="#43B8B4"/>
<path d="M57.5 68H15C12.7909 68 11 66.2091 11 64V60.1208C11 57.6382 12.529 55.4119 14.8461 54.5207L24 51L24.5 43H27C32.6 48.6 40 48 45 43H47.5L48 51L57.5839 54.5496C59.9376 55.4213 61.5 57.6661 61.5 60.1761V64C61.5 66.2091 59.7091 68 57.5 68Z" fill="#07A09A"/>
<path d="M20 15L21 24.5H24.5V18C24.5 16.3431 25.8431 15 27.5 15H35C28.2 15 24.1667 10.3333 23 8C20.6 9.2 20 13.1667 20 15Z" fill="#07A09A"/>
<path d="M29.5 4.5C25.9 4.5 23.3333 3.5 22.5 3C22.5 11 29.5 14.3333 33 15H43.5C45.7091 15 47.5 16.7905 47.5 18.9996V22C47.5 24.8 49.5 24.8333 50.5 24.5L51.7432 17.3962C52.9211 10.665 47.7404 4.5 40.907 4.5H29.5Z" fill="#07A09A"/>
<path d="M49.5 51.5C44 60 29.5 62 22.5 52L24 51L24.5 43H27C30.5 47.5 41.5 47.5 45 43H47.5L48 51L49.5 51.5Z" fill="#07A09A"/>
</svg>
