<svg width="72" height="72" viewBox="0 0 72 72" fill="none" xmlns="http://www.w3.org/2000/svg">
<g clip-path="url(#clip0_91_889)">
<path d="M14.9609 27.3104L38.8813 40.8797L30.8127 55.758C27.1895 62.4392 18.8259 64.8721 12.1844 61.177C5.64837 57.5405 3.22601 49.3215 6.74498 42.721L14.9609 27.3104Z" fill="white"/>
<path d="M38.8828 40.8796L14.9624 27.3104L23.4299 11.9807C27.0847 5.36391 35.4024 2.97923 42.0079 6.65437C48.5805 10.3112 50.9872 18.5954 47.3971 25.2048L38.8828 40.8796Z" fill="#43B8B4"/>
<path d="M26.4023 42.9673H68.003V60.7117L67.6044 60.8817C54.5713 66.4409 39.834 66.4409 26.8009 60.8817L26.4023 60.7117V42.9673Z" fill="#43B8B4"/>
<ellipse cx="47.2027" cy="42.9673" rx="20.8003" ry="7.30653" fill="#07A09A"/>
<path d="M53.9844 36.0608L56.0445 36.3421L57.9309 36.6978L40.1102 49.9023L35.7616 49.0364L53.9844 36.0608Z" fill="white"/>
<path d="M24.9434 18.1954L27.2636 14.4731C30.0345 10.0281 35.8422 8.59991 40.3585 11.2529V11.2529" stroke="white" stroke-width="3" stroke-linecap="round"/>
</g>
<defs>
<clipPath id="clip0_91_889">
<rect width="72" height="72" fill="white"/>
</clipPath>
</defs>
</svg>
