<svg width="72" height="72" viewBox="0 0 72 72" fill="none" xmlns="http://www.w3.org/2000/svg">
<path d="M58.4606 46.0001C27.6606 52.0001 26.9606 27.8335 30.4606 15.0001C29.4604 7.50012 19.6405 14.753 15.4606 20.5001C10.0063 28.0001 3.5 51.5001 25.9607 63.0001C43.548 72.0049 55.9607 60.0001 59.9607 54.0001C62.1273 51.0001 64.8606 45.2001 58.4606 46.0001Z" fill="#07A09A"/>
<path d="M39.58 10H44.8858C45.8542 10 46.2572 11.2391 45.4739 11.8087L39.4479 16.1913C38.6647 16.7609 39.0676 18 40.0361 18H45.8657" stroke="#07A09A" stroke-width="3" stroke-linecap="round"/>
<path d="M53.58 6H58.8858C59.8542 6 60.2572 7.2391 59.4739 7.80874L53.4479 12.1913C52.6647 12.7609 53.0676 14 54.0361 14H59.8657" stroke="#07A09A" stroke-width="3" stroke-linecap="round"/>
<path d="M51.58 20H56.8858C57.8542 20 58.2572 21.2391 57.4739 21.8087L51.4479 26.1913C50.6647 26.7609 51.0676 28 52.0361 28H57.8657" stroke="#43B8B4" stroke-width="3" stroke-linecap="round"/>
</svg>
