<svg width="72" height="72" viewBox="0 0 72 72" fill="none" xmlns="http://www.w3.org/2000/svg">
<path d="M49 13.5H26C25.4477 13.5 25 13.9477 25 14.5V19.5C25 20.0523 25.4477 20.5 26 20.5H49C49.5523 20.5 50 20.9477 50 21.5V24.0307C50 24.849 50.9293 25.3209 51.59 24.8381L61.8326 17.3531C62.397 16.9407 62.3749 16.0913 61.7898 15.7087L51.5472 9.01166C50.8821 8.57679 50 9.05398 50 9.84863V12.5C50 13.0523 49.5523 13.5 49 13.5Z" fill="#07A09A"/>
<path d="M30 32.5H7C6.44772 32.5 6 32.9477 6 33.5V38.5C6 39.0523 6.44772 39.5 7 39.5H30C30.5523 39.5 31 39.9477 31 40.5V43.0307C31 43.849 31.9293 44.3209 32.59 43.8381L42.8326 36.3531C43.397 35.9407 43.3749 35.0913 42.7898 34.7087L32.5472 28.0117C31.8821 27.5768 31 28.054 31 28.8486V31.5C31 32.0523 30.5523 32.5 30 32.5Z" fill="#43B8B4"/>
<path d="M47 51.5H24C23.4477 51.5 23 51.9477 23 52.5V57.5C23 58.0523 23.4477 58.5 24 58.5H47C47.5523 58.5 48 58.9477 48 59.5V62.0307C48 62.849 48.9293 63.3209 49.59 62.8381L59.8326 55.3531C60.397 54.9407 60.3749 54.0913 59.7898 53.7087L49.5472 47.0117C48.8821 46.5768 48 47.054 48 47.8486V50.5C48 51.0523 47.5523 51.5 47 51.5Z" fill="#07A09A"/>
</svg>
