<svg width="72" height="72" viewBox="0 0 72 72" fill="none" xmlns="http://www.w3.org/2000/svg">
<path d="M19 47C20 53 26.5 60.5 35 61" stroke="white" stroke-width="3" stroke-linecap="round"/>
<rect x="4" y="39" width="64" height="7" rx="3.5" fill="#07A09A"/>
<path d="M4 31.8923C4 29.9119 5.85675 28.4559 7.78001 28.9281L22.7301 32.5989C23.0422 32.6755 23.3625 32.7143 23.6839 32.7143H64.8571C66.5929 32.7143 68 34.1214 68 35.8571C68 37.5929 66.5929 39 64.8571 39H23.6839C23.3625 39 23.0422 38.9613 22.7301 38.8846L6.3244 34.8564C4.95959 34.5213 4 33.2976 4 31.8923Z" fill="#43B8B4"/>
<rect x="14" y="46" width="3" height="11" fill="#43B8B4"/>
<rect x="55" y="46" width="3" height="11" fill="#43B8B4"/>
<rect x="55" y="50" width="3" height="38" transform="rotate(90 55 50)" fill="#43B8B4"/>
<circle cx="15.5" cy="61.5" r="5.5" fill="#07A09A"/>
<circle cx="56.5" cy="61.5" r="5.5" fill="#07A09A"/>
<path d="M32.7619 7C32.7619 5.89543 33.6573 5 34.7619 5H36.2381C37.3427 5 38.2381 5.89543 38.2381 7V25C38.2381 26.1046 37.3427 27 36.2381 27H34.7619C33.6573 27 32.7619 26.1046 32.7619 25V7Z" fill="#07A09A"/>
<path d="M45 13.381C46.1046 13.381 47 14.2764 47 15.381V16.6191C47 17.7236 46.1046 18.619 45 18.619L26 18.619C24.8954 18.619 24 17.7236 24 16.619L24 15.381C24 14.2764 24.8954 13.381 26 13.381L45 13.381Z" fill="#07A09A"/>
</svg>
