<svg width="72" height="72" viewBox="0 0 72 72" fill="none" xmlns="http://www.w3.org/2000/svg">
<path d="M36.2112 36C40.4033 36 44.4237 34.3346 47.388 31.3704C50.3523 28.4061 52.0176 24.3857 52.0176 20.1936C52.0176 16.0015 50.3523 11.9811 47.388 9.01679C44.4237 6.05252 40.4033 4.38721 36.2112 4.38721L36.2112 20.1936L36.2112 36Z" fill="#43B8B4"/>
<path d="M36.2109 36C32.0188 36 27.9984 34.3346 25.0341 31.3704C22.0699 28.4061 20.4045 24.3857 20.4045 20.1936C20.4045 16.0015 22.0699 11.9811 25.0341 9.01679C27.9984 6.05252 32.0188 4.38721 36.2109 4.38721L36.2109 20.1936L36.2109 36Z" fill="white"/>
<path d="M37.0431 67.6129V40.742C38.2888 40.742 42.7057 40.1729 46.7059 37.5863C48.1222 36.6705 49.7467 35.9028 51.3837 36.3087C59.3398 38.2818 62.0005 49.2289 62.0005 54.9676C62.0005 61.2901 58.3303 67.6127 52.458 67.6129H37.0431Z" fill="#43B8B4"/>
<path d="M37.0431 67.6129V40.742C35.6934 40.742 30.8539 40.1548 26.535 37.4627C25.1676 36.6103 23.6116 35.9215 22.0332 36.2459C13.3238 38.0364 10.4218 49.1648 10.4218 54.9676C10.4218 61.2901 14.3367 67.6127 20.6005 67.6129H37.0431Z" fill="white"/>
</svg>
