<svg width="72" height="72" viewBox="0 0 72 72" fill="none" xmlns="http://www.w3.org/2000/svg">
<rect x="5" y="9" width="63" height="55" rx="5" fill="#43B8B4"/>
<path d="M15 21L18.6031 23.3685C20.133 24.3741 22.0902 24.4632 23.7051 23.6007L26.2189 22.2581C27.6909 21.4719 29.458 21.4719 30.93 22.2581L33.7083 23.7419C35.1803 24.5281 36.9474 24.5281 38.4194 23.7419L41.2674 22.2208C42.7007 21.4553 44.4167 21.4341 45.8685 22.1639L49.1953 23.8361C50.6472 24.5659 52.3631 24.5447 53.7965 23.7792L59 21" stroke="white" stroke-width="3" stroke-linecap="round" stroke-linejoin="round"/>
<path d="M15 36L18.6031 38.3685C20.133 39.3741 22.0902 39.4632 23.7051 38.6007L26.2189 37.2581C27.6909 36.4719 29.458 36.4719 30.93 37.2581L33.7083 38.7419C35.1803 39.5281 36.9474 39.5281 38.4194 38.7419L41.2674 37.2208C42.7007 36.4553 44.4167 36.4341 45.8685 37.1639L49.1953 38.8361C50.6472 39.5659 52.3631 39.5447 53.7965 38.7792L59 36" stroke="white" stroke-width="3" stroke-linecap="round" stroke-linejoin="round"/>
<path d="M15 51L18.6031 53.3685C20.133 54.3741 22.0902 54.4632 23.7051 53.6007L26.2189 52.2581C27.6909 51.4719 29.458 51.4719 30.93 52.2581L33.7083 53.7419C35.1803 54.5281 36.9474 54.5281 38.4194 53.7419L41.2674 52.2208C42.7007 51.4553 44.4167 51.4341 45.8685 52.1639L49.1953 53.8361C50.6472 54.5659 52.3631 54.5447 53.7965 53.7792L59 51" stroke="white" stroke-width="3" stroke-linecap="round" stroke-linejoin="round"/>
</svg>
