<?xml version="1.0" encoding="utf-8"?><svg viewBox="0 0 72 72" xmlns="http://www.w3.org/2000/svg" xmlns:xlink="http://www.w3.org/1999/xlink"><style>:root>svg{display:none}:root>svg:target{display:block}</style><svg fill="none" viewBox="0 0 72 72" id="IVDrip" xmlns="http://www.w3.org/2000/svg"><path d="M11.919 13.517a5.104 5.104 0 013.64-4.89l7.14-2.136a44.655 44.655 0 0125.602 0l7.139 2.136a5.104 5.104 0 013.64 4.89V48.72a3.828 3.828 0 01-1.668 3.16l-11.31 7.725a1.94 1.94 0 00-.845 1.602 2.91 2.91 0 01-2.91 2.91h-2.782v4.722h-8.131v-4.721h-2.782a2.91 2.91 0 01-2.91-2.91c0-.642-.316-1.241-.846-1.603L13.587 51.88a3.828 3.828 0 01-1.668-3.16V13.516z" fill="#43B8B4"/><path d="M19.505 15.546a.75.75 0 01.45-.688 38.987 38.987 0 0131.09 0 .75.75 0 01.45.688v30.051c0 .317-.142.616-.387.816l-6.371 5.19a2.327 2.327 0 01-1.47.523H27.734a2.328 2.328 0 01-1.47-.523l-6.372-5.19c-.245-.2-.387-.5-.387-.816V15.546z" fill="#07A09A" stroke="#fff" stroke-width="3"/><path d="M35.5 20.917c6.055 5.809 11.764 21.298 0 21.298-11.765 0-6.056-15.49 0-21.298z" fill="#fff"/></svg><svg fill="none" viewBox="0 0 68 68" id="alert-danger" xmlns="http://www.w3.org/2000/svg"><rect width="68" height="68" rx="10" fill="#FFF5F5"/><circle cx="35.5" cy="44.5" r="1.5" fill="#EB5757"/><rect x="34" y="22" width="3" height="17" rx="1.5" fill="#EB5757"/></svg><svg fill="none" viewBox="0 0 68 68" id="alert-done" xmlns="http://www.w3.org/2000/svg"><rect width="68" height="68" rx="10" fill="#E6FEFD"/><path d="M24.642 34.889L31.41 42l15.23-16" stroke="#07A09A" stroke-width="3" stroke-linecap="round" stroke-linejoin="round"/></svg><svg fill="none" viewBox="0 0 72 72" id="angry" xmlns="http://www.w3.org/2000/svg"><circle cx="37.5" cy="36.5" r="30.5" fill="#89D3D0"/><circle cx="35.5" cy="34.5" r="28.5" fill="#07A09A"/><path d="M33 30a5 5 0 11-10 0 5 5 0 0110 0zM40 30a5 5 0 1010 0 5 5 0 00-10 0z" fill="#89D3D0"/><path d="M30.535 25.687c-1.97-2.58-6.733-3.533-8.867-3.687-2.463 0-1.97 3.227 0 2.765 1.576-.368 2.955.154 3.448.462 2.627 1.229 7.39 3.042 5.419.46zM42.465 25.687c1.97-2.58 6.733-3.533 8.867-3.687 2.463 0 1.97 3.227 0 2.765-1.576-.368-2.955.154-3.448.462-2.627 1.229-7.39 3.042-5.419.46zM25 46.635c0-.993.589-1.891 1.5-2.287l.712-.31a23.295 23.295 0 0118.576 0l.713.31a2.493 2.493 0 01-1.72 4.672l-4.81-1.464a11.92 11.92 0 00-6.941 0l-4.81 1.464A2.493 2.493 0 0125 46.635z" fill="#89D3D0"/></svg><svg fill="none" viewBox="0 0 72 72" id="beer" xmlns="http://www.w3.org/2000/svg"><path fill="#07A09A" d="M20 15h33v45H20z"/><path d="M27.1 32.5H20v9h6.979c1.92 0 3.746.829 5.01 2.274 2.653 3.031 7.369 3.031 10.022 0a6.658 6.658 0 015.01-2.274H53v-9h-6.1a7 7 0 01-4.95-2.05 7 7 0 00-9.9 0 7 7 0 01-4.95 2.05zM23 9h27l3 6H20l3-6zM50 66H23l-3-6h33l-3 6z" fill="#89D3D0"/><rect x="21" y="5" width="30" height="4" rx="2" fill="#07A09A"/></svg><svg fill="none" viewBox="0 0 72 72" id="brain" xmlns="http://www.w3.org/2000/svg"><path d="M64.83 24.678c-2.37-3.073-4.86-5.687-7.458-7.836a2.063 2.063 0 00-.277-.227c-10.614-8.619-22.44-9.018-34.79-3.28-6.694 1.07-11.393 4.449-13.976 10.048-5.736 6.641-6.894 13.513-1.027 20.273 2.92 5.249 7.786 6.121 13.389 3.643 2.292 4.218 6.5 6.564 13.744 4.988 1.82 2.306 5.119 2.616 7.14 2.643l6.134 6.805a2.062 2.062 0 001.532.682h4.321a2.063 2.063 0 002.006-2.543l-.56-2.342c10.342-2.174 15.863-11.446 11.28-16.827 4.232-5.113 3.331-11.307-1.458-16.026z" fill="#89D3D0"/><path d="M47.71 61.735a2.063 2.063 0 001.531.682h4.321a2.063 2.063 0 002.006-2.543l-.56-2.342C65.068 55.419 70.65 46.53 66.57 41.06c-2.725-1.16-5.607-2.825-7.053-5.036-3.2-4.895-4.224 2.079-7.04 4.127-2.817 2.048-13.314 6.017-27.78-3.061-14.465-9.078-10.625 4.085-14.21 1.562-1.978-1.393-3.988.187-5.392 1.883a18.24 18.24 0 002.208 3.122c2.92 5.248 7.786 6.121 13.389 3.643 2.292 4.218 6.5 6.564 13.744 4.988 1.82 2.306 5.118 2.615 7.14 2.643l6.134 6.805zM64.832 24.678c-2.37-3.073-4.86-5.687-7.458-7.836a2.064 2.064 0 00-.278-.227c-10.613-8.619-22.439-9.018-34.79-3.28-4.398.703-7.934 2.403-10.576 5.074 1.03.389 2.525.773 4.647 1.13 11.393 1.921 12.674-7.552 18.306-2.304 5.633 5.25 9.217 9.346 15.49 10.114 6.273.768 2.304-7.227 8.833-1.437 2.723 2.414 5.957 2.98 8.71 2.6-.692-1.337-1.657-2.624-2.884-3.834z" fill="#89D3D0"/><path d="M25.165 35.704a2.062 2.062 0 00-1.186 2.665c.685 1.784-1.452 3.424-2.823 4.111-1.938.972-1.242 3.907.927 3.907.31 0 .626-.07.923-.22 4.206-2.11 6.145-5.838 4.824-9.277a2.062 2.062 0 00-2.665-1.186zm24.492 3.313c1.595-4.298.955-9.13-3.025-11.241A2.062 2.062 0 1044.7 31.42c1.956 1.038 1.874 3.754 1.183 5.891-4.504-1.32-8.498-.086-10.303 3.248a2.062 2.062 0 103.627 1.964c2.23-4.117 12.018.468 11.295 4.531a2.063 2.063 0 004.062.723c.63-3.542-1.71-6.742-4.906-8.76zm-12.069-6.312a2.063 2.063 0 00-1.706-3.756c-.863.392-1.917-.409-2.665-1.514 1.044-1.461 1.372-3.174.837-4.862a2.063 2.063 0 00-3.932 1.247c.412 1.298-1.64 2.377-1.875 2.495-1.786.9-3.668.818-4.157.143a2.063 2.063 0 00-3.34 2.42c2.018 2.786 6.169 2.686 9.26 1.166 1.875 2.56 4.762 3.94 7.578 2.66zm3.392-5.64a2.063 2.063 0 002.052-2.303c-.544-4.659 1.028-7.772 4.946-9.798a2.063 2.063 0 00-1.894-3.665c-5.415 2.8-7.887 7.62-7.15 13.941a2.063 2.063 0 002.046 1.824zm20.245 5.857a2.063 2.063 0 00-2.419-1.631l-3.263.635a2.062 2.062 0 00.392 4.088c.283 0 .15.009 3.66-.674a2.063 2.063 0 001.63-2.419zm-8.623-7.018c.314 0 .632-.072.931-.223 2.804-1.422 4.348-3.942 4.465-7.289a2.063 2.063 0 10-4.123-.144c-.065 1.855-.746 3.012-2.208 3.754-1.928.978-1.229 3.902.935 3.902zm-35.983 6.832c-4.01 0-5.837-4.245-4.606-7.496a2.063 2.063 0 00-3.858-1.46C5.873 29.81 9.763 36.86 16.619 36.86a2.063 2.063 0 100-4.125zM22.91 17.39c2.059 0 2.576.985 3.36 2.108a2.063 2.063 0 003.385-2.357c-.046-.065-.094-.136-.144-.21-.804-1.19-2.477-3.666-6.601-3.666a2.063 2.063 0 100 4.125z" fill="#07A09A"/></svg><svg fill="none" viewBox="0 0 72 72" id="certificate" xmlns="http://www.w3.org/2000/svg"><path d="M4 11a5 5 0 015-5h27v57H9a5 5 0 01-5-5V11zM36 6h27a5 5 0 015 5v47a5 5 0 01-5 5H36V6z" fill="#07A09A"/><rect x="9" y="17" width="33" height="3" rx="1.5" fill="#fff"/><rect x="9" y="26" width="47" height="3" rx="1.5" fill="#fff"/><rect x="9" y="35" width="30" height="3" rx="1.5" fill="#fff"/><rect x="9" y="44" width="24" height="3" rx="1.5" fill="#fff"/><path d="M45 51h16v17.391c0 1.571-1.728 2.53-3.06 1.697l-3.88-2.425a2 2 0 00-2.12 0l-3.88 2.425c-1.332.832-3.06-.126-3.06-1.697V51z" fill="#43B8B4"/><circle cx="53" cy="48" r="9" fill="#fff"/></svg><svg fill="none" viewBox="0 0 72 72" id="doc2" xmlns="http://www.w3.org/2000/svg"><path d="M5.79 58.826A18.846 18.846 0 0116.877 41.65l2.221-1.003a38.634 38.634 0 0131.803 0l2.22 1.003a18.846 18.846 0 0111.09 17.176v7.62c0 1.042-.844 1.885-1.885 1.885H7.674a1.885 1.885 0 01-1.885-1.884v-7.62z" fill="#07A09A"/><path d="M23.22 27.812c-4.9-2.261-2.983-5.026-1.413-6.125.786-.785 1.571-5.82 2.702-6.95 1.413-1.414 4.366 1.296 8.135-1.06 3.77-2.355 5.654-2.826 7.538-3.297 1.885-.472 3.298.942 4.24 1.884.755.754 3.142 6.596 4.241 9.423 2.639 3.015-.157 5.34-1.885 6.125C45.522 31.582 41.408 39.12 35 39.12S24.477 31.58 23.22 27.812z" fill="#07A09A"/><circle cx="46.779" cy="58.437" r="3.298" fill="#fff"/><circle cx="56.202" cy="57.495" r="3.298" fill="#fff"/><path d="M51.961 41.004l-2.623 4.712m0 0c-2.199.942-5.843 4.712-2.827 12.25m2.827-12.25c2.198-.157 6.69 1.696 7.067 10.365" stroke="#fff" stroke-width="2.827"/><path d="M23.645 25.927c-.118-5.66 1.064-8.777 1.67-9.628 13.755 2.947 19.487 2.21 20.634 1.473l1.228 8.155c1.14-2.476 1.49-6.828 1.523-8.695 0-11.083-18.815-16.85-24.662-6.092-4.716 4.677-2.227 11.807-.393 14.787zM31.152 68.331l-4.888-26.03c4.027 4.142 13.086 4.171 17.113 0l-4.89 26.03h-7.335z" fill="#43B8B4"/><path d="M25.95 40.536l.411 2.516c4.072 3.706 13.954 2.608 16.974 0l.229-2.196c-7.65 3.953-14.93 1.433-17.615-.32z" fill="#07A09A"/><path d="M25.857 33.49l.504 7.111c4.072 3.706 13.954 2.608 16.973 0l.366-6.79c-7.65 3.952-15.158 1.433-17.843-.32z" fill="#43B8B4"/></svg><svg fill="none" viewBox="0 0 72 72" id="doctor" xmlns="http://www.w3.org/2000/svg"><path d="M5.79 58.826A18.846 18.846 0 0116.877 41.65l2.221-1.003a38.634 38.634 0 0131.803 0l2.22 1.003a18.846 18.846 0 0111.09 17.176v7.62c0 1.042-.844 1.885-1.885 1.885H7.674a1.885 1.885 0 01-1.885-1.884v-7.62z" fill="#07A09A"/><path d="M26.048 35.35c0-.376.628-2.355.942-3.297 2.513-1.1 8.104-3.299 10.366-3.299 2.261 0 5.025 3.455 6.124 5.183.315 2.513.849 8.01.472 9.894-.471 2.356-3.77 3.298-5.654 3.77-1.885.47-4.712-.472-6.125-1.414-1.414-.942-6.125-10.365-6.125-10.837z" fill="#43B8B4"/><path d="M35 63.62l-11.308-24.5 2.827-5.183c2.199 3.77 7.068 11.214 8.952 10.837 1.885-.377 6.125-7.382 8.01-10.837l2.827 5.183L35 63.62z" fill="#07A09A"/><path d="M23.22 27.812c-4.9-2.261-2.983-5.026-1.413-6.125l3.77-3.769c1.413-1.413 3.298-1.885 7.067-4.24 3.77-2.356 5.654-2.827 7.538-3.299 1.885-.47 3.298.943 4.24 1.885.755.754 3.142 6.596 4.241 9.423 2.639 3.015-.157 5.34-1.885 6.125C45.522 31.582 41.408 39.12 35 39.12S24.477 31.58 23.22 27.812z" fill="#07A09A"/><path d="M32.645 15.562c-8.293 0-9.895 6.91-9.895 10.365-2.638-8.292-.314-14.762 1.414-16.961 4.523-6.785 13.663-8.48 20.26-1.413.628-.158 2.26.094 3.769 2.355 2.261 5.654.314 13.036-.943 16.02.377-7.162-2.67-12.093-4.24-13.664 0 1.1-3.77 3.298-10.365 3.298zM33.115 59.38l-8.48-18.376 6.125 8.952 1.884-1.413 1.414 1.413-.943 9.423zM36.885 59.38l8.48-18.376-6.125 8.952-1.884-1.413-1.414 1.413.943 9.423z" fill="#43B8B4"/><path d="M21.808 39.59c.942 2.357-4.24 7.445-4.24 12.722" stroke="#fff" stroke-width="2.827"/><circle cx="17.568" cy="54.668" r="2.356" fill="#07A09A" stroke="#fff" stroke-width="1.885"/><circle cx="46.779" cy="58.437" r="3.298" fill="#fff"/><circle cx="56.202" cy="57.495" r="3.298" fill="#fff"/><path d="M35 63.62l2.355-4.24-.942-9.895 1.414-1.884L35 44.774 32.173 47.6l1.413 1.884-.942 9.894L35 63.62z" fill="#fff"/><path d="M51.961 41.004l-2.623 4.712m0 0c-2.199.942-5.843 4.712-2.827 12.25m2.827-12.25c2.198-.157 6.69 1.696 7.067 10.365" stroke="#fff" stroke-width="2.827"/></svg><svg fill="none" viewBox="0 0 24 24" id="done" xmlns="http://www.w3.org/2000/svg"><path fill="#fff" d="M0 0h24v24H0z"/><rect x="-1143" y="-422" width="2513" height="1347" rx="14" fill="#fff" stroke="#000" stroke-width="4"/><rect x="-1108.5" y="-65.5" width="1483" height="251" rx="4.5" stroke="#9747FF" stroke-dasharray="10 5"/><rect x="-217" y="-19" width="260" height="62" rx="16" fill="#F5F5F5"/><path d="M6 12.4l4.118 3.6L18 8" stroke="#07A09A" stroke-width="3" stroke-linecap="round" stroke-linejoin="round"/></svg><svg fill="none" viewBox="0 0 72 72" id="drugs" xmlns="http://www.w3.org/2000/svg"><path d="M28.5 19H43l9.103 7.803A4 4 0 0153.5 29.84V66a2 2 0 01-2 2H20a2 2 0 01-2-2V29.84a4 4 0 011.397-3.037L28.5 19z" fill="#07A09A"/><rect x="22" y="37" width="28" height="21" rx="1" fill="#89D3D0"/><path fill="#89D3D0" d="M29 16h14v3H29z"/><rect x="27" y="5" width="18" height="11" rx="1" fill="#07A09A"/></svg><svg fill="none" viewBox="0 0 72 72" id="hospital" xmlns="http://www.w3.org/2000/svg"><path d="M41.704 41.703H27.446" stroke="#fff" stroke-width="3.6" stroke-linecap="round"/><path d="M20.316 11.084a3.6 3.6 0 013.6-3.6h24.168a3.6 3.6 0 013.6 3.6v49.832a3.6 3.6 0 01-3.6 3.6H43.13V46.955a2.4 2.4 0 00-2.4-2.4h-9.458a2.4 2.4 0 00-2.4 2.4v17.561h-4.955a3.6 3.6 0 01-3.6-3.6V11.084z" fill="#07A09A"/><path d="M54.536 18.89h6.38a3.6 3.6 0 013.6 3.6v38.426a3.6 3.6 0 01-3.6 3.6h-6.38V18.89zM17.465 18.89h-6.38a3.6 3.6 0 00-3.6 3.6v38.426a3.6 3.6 0 003.6 3.6h6.38V18.89z" fill="#43B8B4"/><path d="M36 18.89v14.258M43.13 26.02H28.872" stroke="#fff" stroke-width="3" stroke-linecap="round"/></svg><svg fill="none" viewBox="0 0 72 72" id="house" xmlns="http://www.w3.org/2000/svg"><path d="M12 43.705L33.94 23.18a1.917 1.917 0 012.62 0L58.5 43.704V62.58a2.875 2.875 0 01-2.875 2.875H41.591V52.8a2.3 2.3 0 00-2.3-2.3h-8.082a2.3 2.3 0 00-2.3 2.3v12.654H14.875A2.875 2.875 0 0112 62.58V43.705z" fill="#07A09A"/><path d="M31.335 9.387L5.461 34.966a3.696 3.696 0 005.158 5.296l22.072-21.18a3.833 3.833 0 015.274-.033l22.79 21.337a3.865 3.865 0 105.225-5.699l-9.355-8.4V15.136a4.125 4.125 0 00-8.25 0v2.82L39.353 9.32a5.75 5.75 0 00-8.018.066z" fill="#43B8B4"/></svg><svg fill="none" viewBox="0 0 72 72" id="house2" xmlns="http://www.w3.org/2000/svg"><path d="M15.256 20L30 31.563V57H7V40.234L15.256 20z" fill="#89D3D0"/><path fill="#07A09A" d="M30 38h37v19H30z"/><path d="M7.125 41H3l12.964-26h38.893L69 40.41H25.393l-9.429-17.137L7.125 41z" fill="#89D3D0"/><path d="M16.2 15L30 40.41h-4.2l-9.6-17.137L7.2 41H3l13.2-26zM13 44h11v13H13z" fill="#07A09A"/><path fill="#89D3D0" d="M38 44h8v8h-8zM52 44h8v8h-8z"/></svg><svg fill="none" viewBox="0 0 72 72" id="ivdrip2" xmlns="http://www.w3.org/2000/svg"><rect x="19" y="12" width="36" height="46" rx="6" fill="#fff" stroke="#07A09A" stroke-width="3"/><rect x="24" y="23" width="26" height="30" rx="4" fill="#07A09A"/><rect x="37" y="28" width="10" height="3" rx="1.5" fill="#fff"/><rect x="32" y="34" width="15" height="3" rx="1.5" fill="#fff"/><rect x="37" y="40" width="10" height="3" rx="1.5" fill="#fff"/><rect x="32" y="46" width="15" height="3" rx="1.5" fill="#fff"/><rect x="32.5" y="4.5" width="9" height="7" rx="3.5" stroke="#07A09A" stroke-width="3"/><mask id="aoa" fill="#fff"><rect x="31" y="57" width="12" height="7" rx="1"/></mask><rect x="31" y="57" width="12" height="7" rx="1" stroke="#07A09A" stroke-width="6" mask="url(#aoa)"/><mask id="aob" fill="#fff"><rect x="33" y="62" width="8" height="7" rx="1"/></mask><rect x="33" y="62" width="8" height="7" rx="1" stroke="#07A09A" stroke-width="6" mask="url(#aob)"/></svg><svg fill="none" viewBox="0 0 72 72" id="like" xmlns="http://www.w3.org/2000/svg"><path d="M34 6.704a2 2 0 013 0l5.891 6.688a2 2 0 001.8.655l8.812-1.337a2 2 0 012.3 1.93l.213 8.909a2 2 0 00.958 1.66l7.609 4.639a2 2 0 01.52 2.956l-5.562 6.962a2 2 0 00-.333 1.887l2.846 8.445a2 2 0 01-1.5 2.6l-8.737 1.757a2 2 0 00-1.468 1.232L47.1 63.986a2 2 0 01-2.82 1.026l-7.823-4.27a2 2 0 00-1.916 0l-7.822 4.27a2 2 0 01-2.821-1.026l-3.248-8.3a2 2 0 00-1.468-1.231l-8.737-1.757a2 2 0 01-1.5-2.6l2.846-8.445a2 2 0 00-.333-1.887l-5.563-6.962a2 2 0 01.521-2.956l7.61-4.64a2 2 0 00.957-1.66l.214-8.908a2 2 0 012.3-1.93l8.81 1.337a2 2 0 001.801-.655l5.89-6.688z" fill="#07A09A"/><path d="M23 38.35L30.456 46 48 28" stroke="#fff" stroke-width="3" stroke-linecap="round" stroke-linejoin="round"/></svg><svg fill="none" viewBox="0 0 72 72" id="loupe" xmlns="http://www.w3.org/2000/svg"><path d="M42.5 41.5L64 63" stroke="#43B8B4" stroke-width="3" stroke-linecap="round" stroke-linejoin="round"/><circle cx="32.5" cy="30.5" r="26.5" fill="#07A09A"/><circle cx="32.5" cy="30.5" r="22.5" fill="#43B8B4"/></svg><svg fill="none" viewBox="0 0 72 72" id="man" xmlns="http://www.w3.org/2000/svg"><path d="M22 30c-4.8-.8-2.667-4-1-5.5 2.5-2 1-5 1-6.5s1-3 2.5-5c1.2-1.6 2.166-1.667 2.5-1.5 1.666-.167 5.6-.5 8-.5 3 0 7.5-.5 11 1 2.8 1.2 3.166 4.5 3 6 0 1.5.3 4.9 1.5 6.5 4.8 2.8 1.333 4.833-1 5.5-.8 4.4-3.334 10.5-4.5 13l-2.5 4.5-13.5 1-2-5.5-5-13z" fill="#43B8B4"/><path d="M57.5 68H15a4 4 0 01-4-4v-3.88a6 6 0 013.846-5.6L24 51l.5-8H27c5.6 5.6 13 5 18 0h2.5l.5 8 9.584 3.55a6 6 0 013.916 5.626V64a4 4 0 01-4 4zM20 15l1 9.5h3.5V18a3 3 0 013-3H35c-6.8 0-10.833-4.667-12-7-2.4 1.2-3 5.167-3 7z" fill="#07A09A"/><path d="M29.5 4.5c-3.6 0-6.167-1-7-1.5 0 8 7 11.333 10.5 12h10.5a4 4 0 014 4v3c0 2.8 2 2.833 3 2.5l1.243-7.104C52.921 10.665 47.74 4.5 40.907 4.5H29.5zM49.5 51.5C44 60 29.5 62 22.5 52l1.5-1 .5-8H27c3.5 4.5 14.5 4.5 18 0h2.5l.5 8 1.5.5z" fill="#07A09A"/></svg><svg fill="none" viewBox="0 0 24 24" id="mark" xmlns="http://www.w3.org/2000/svg"><rect x="2" y="2" width="20" height="20" rx="10" fill="#07A09A"/><path d="M8 12h8M12 8v8" stroke="#fff" stroke-width="2" stroke-linecap="round"/></svg><svg fill="none" viewBox="0 0 72 72" id="pills-alt" xmlns="http://www.w3.org/2000/svg"><g clip-path="url(#atclip0_91_889)"><path d="M14.96 27.31l23.921 13.57-8.068 14.878c-3.623 6.681-11.987 9.114-18.629 5.419-6.536-3.636-8.958-11.855-5.439-18.456l8.216-15.41z" fill="#fff"/><path d="M38.883 40.88l-23.92-13.57 8.467-15.33c3.655-6.616 11.972-9 18.578-5.326 6.572 3.657 8.98 11.941 5.39 18.55L38.882 40.88zM26.402 42.967h41.601v17.745l-.399.17a52 52 0 01-40.803 0l-.399-.17V42.967z" fill="#43B8B4"/><ellipse cx="47.203" cy="42.967" rx="20.8" ry="7.307" fill="#07A09A"/><path d="M53.984 36.06l2.06.282 1.887.356-17.82 13.204-4.35-.866 18.223-12.975z" fill="#fff"/><path d="M24.943 18.195l2.32-3.722a9.663 9.663 0 0113.095-3.22v0" stroke="#fff" stroke-width="3" stroke-linecap="round"/></g><defs><clipPath id="atclip0_91_889"><path fill="#fff" d="M0 0h72v72H0z"/></clipPath></defs></svg><svg fill="none" viewBox="0 0 72 72" id="procedure" xmlns="http://www.w3.org/2000/svg"><rect x="6" y="6" width="60" height="60" rx="6" fill="#07A09A"/><g clip-path="url(#auclip0_84_2583)"><rect x="9.462" y="10.615" width="53.077" height="40.385" rx="4" fill="#43B8B4"/><path d="M7.462 35.115l12.01-13.857a1 1 0 011.654.216l9.01 18.452a1 1 0 001.765.06l13.344-23.128a1 1 0 011.635-.14L75 50.5" stroke="#fff" stroke-width="3"/></g><rect x="41.77" y="56.769" width="15" height="3.462" rx="1.731" fill="#fff"/><defs><clipPath id="auclip0_84_2583"><rect x="9.462" y="10.615" width="53.077" height="40.385" rx="4" fill="#fff"/></clipPath></defs></svg><svg fill="none" viewBox="0 0 72 72" id="sleep" xmlns="http://www.w3.org/2000/svg"><path d="M58.46 46c-30.8 6-31.5-18.166-28-31-1-7.5-10.82-.247-15 5.5C10.007 28 3.5 51.5 25.96 63c17.588 9.005 30-3 34-9 2.167-3 4.9-8.8-1.5-8z" fill="#07A09A"/><path d="M39.58 10h5.306c.968 0 1.371 1.24.588 1.809l-6.026 4.382c-.783.57-.38 1.809.588 1.809h5.83M53.58 6h5.306c.968 0 1.371 1.24.588 1.809l-6.026 4.382c-.783.57-.38 1.809.588 1.809h5.83" stroke="#07A09A" stroke-width="3" stroke-linecap="round"/><path d="M51.58 20h5.306c.968 0 1.371 1.24.588 1.809l-6.026 4.382c-.783.57-.38 1.809.588 1.809h5.83" stroke="#43B8B4" stroke-width="3" stroke-linecap="round"/></svg><svg fill="none" viewBox="0 0 72 72" id="speed" xmlns="http://www.w3.org/2000/svg"><path d="M49 13.5H26a1 1 0 00-1 1v5a1 1 0 001 1h23a1 1 0 011 1v2.53a1 1 0 001.59.808l10.243-7.485a1 1 0 00-.043-1.644L51.547 9.012A1 1 0 0050 9.849V12.5a1 1 0 01-1 1z" fill="#07A09A"/><path d="M30 32.5H7a1 1 0 00-1 1v5a1 1 0 001 1h23a1 1 0 011 1v2.53a1 1 0 001.59.808l10.243-7.485a1 1 0 00-.043-1.644l-10.243-6.697a1 1 0 00-1.547.837V31.5a1 1 0 01-1 1z" fill="#43B8B4"/><path d="M47 51.5H24a1 1 0 00-1 1v5a1 1 0 001 1h23a1 1 0 011 1v2.53a1 1 0 001.59.808l10.243-7.485a1 1 0 00-.043-1.644l-10.243-6.697a1 1 0 00-1.547.837V50.5a1 1 0 01-1 1z" fill="#07A09A"/></svg><svg fill="none" viewBox="0 0 72 72" id="stationar" xmlns="http://www.w3.org/2000/svg"><path d="M19 47c1 6 7.5 13.5 16 14" stroke="#fff" stroke-width="3" stroke-linecap="round"/><rect x="4" y="39" width="64" height="7" rx="3.5" fill="#07A09A"/><path d="M4 31.892a3.052 3.052 0 013.78-2.964l14.95 3.67c.312.078.633.116.954.116h41.173a3.143 3.143 0 110 6.286H23.684c-.322 0-.642-.039-.954-.115L6.324 34.856A3.052 3.052 0 014 31.892zM14 46h3v11h-3zM55 46h3v11h-3zM55 50v3H17v-3z" fill="#43B8B4"/><circle cx="15.5" cy="61.5" r="5.5" fill="#07A09A"/><circle cx="56.5" cy="61.5" r="5.5" fill="#07A09A"/><path d="M32.762 7a2 2 0 012-2h1.476a2 2 0 012 2v18a2 2 0 01-2 2h-1.476a2 2 0 01-2-2V7z" fill="#07A09A"/><path d="M45 13.381a2 2 0 012 2v1.238a2 2 0 01-2 2H26a2 2 0 01-2-2v-1.238a2 2 0 012-2h19z" fill="#07A09A"/></svg><svg fill="none" viewBox="0 0 72 72" id="symptoms" xmlns="http://www.w3.org/2000/svg"><rect x="11" y="3" width="50" height="65" rx="6" fill="#07A09A"/><path d="M16 9a6 6 0 016-6h41v65H22a6 6 0 01-6-6V9z" fill="#43B8B4"/><rect x="21" y="14" width="15" height="3" rx="1.5" fill="#fff"/><rect x="30" y="8" width="15" height="3" rx="1.5" transform="rotate(90 30 8)" fill="#fff"/><rect x="21" y="29" width="23" height="3" rx="1.5" fill="#fff"/><rect x="21" y="38" width="33" height="3" rx="1.5" fill="#fff"/><rect x="21" y="56" width="39" height="3" rx="1.5" fill="#fff"/><rect x="21" y="47" width="26" height="3" rx="1.5" fill="#fff"/></svg><svg fill="none" viewBox="0 0 72 72" id="user" xmlns="http://www.w3.org/2000/svg"><path d="M36.211 36a15.807 15.807 0 000-31.613V36z" fill="#43B8B4"/><path d="M36.21 36a15.807 15.807 0 010-31.613V36z" fill="#fff"/><path d="M37.043 67.613V40.742c1.246 0 5.663-.57 9.663-3.156 1.416-.916 3.04-1.683 4.678-1.277C59.34 38.282 62 49.229 62 54.968c0 6.322-3.67 12.645-9.543 12.645H37.043z" fill="#43B8B4"/><path d="M37.043 67.613V40.742c-1.35 0-6.19-.587-10.508-3.28-1.367-.852-2.923-1.54-4.502-1.216-8.71 1.79-11.611 12.919-11.611 18.722 0 6.322 3.915 12.645 10.178 12.645h16.443z" fill="#fff"/></svg><svg fill="none" viewBox="0 0 72 72" id="van" xmlns="http://www.w3.org/2000/svg"><path opacity=".79" d="M4 21a5 5 0 015-5h37.719a5 5 0 014.413 2.649l9.605 18.027 5.642 3.053A5 5 0 0169 44.127V51a3 3 0 01-3 3H4V21z" fill="#43B8B4"/><path d="M47 28a2 2 0 012-2h6.125L60 36H49a2 2 0 01-2-2v-6z" fill="#07A09A"/><circle cx="19.5" cy="52.5" r="5.5" fill="#07A09A"/><rect x="64" y="48" width="5" height="6" rx="1" fill="#3BB5B0"/><circle cx="19.5" cy="52.5" r="2.5" fill="#A2DDDA"/><circle cx="60.5" cy="52.5" r="5.5" fill="#07A09A"/><rect x="3" y="49" width="8" height="5" rx="2.5" fill="#07A09A"/><circle cx="60.5" cy="52.5" r="2.5" fill="#89D3D0"/><rect x="14" y="26" width="25" height="10" rx="2" fill="#07A09A"/><rect x="30" y="48" width="19" height="3" rx="1.5" fill="#07A09A"/></svg><svg fill="none" viewBox="0 0 72 72" id="water2" xmlns="http://www.w3.org/2000/svg"><rect x="5" y="9" width="63" height="55" rx="5" fill="#43B8B4"/><path d="M15 21l3.603 2.369a5 5 0 005.102.232l2.514-1.343a5 5 0 014.711 0l2.778 1.484a5 5 0 004.711 0l2.848-1.521a5 5 0 014.601-.057l3.327 1.672a5 5 0 004.602-.057L59 21M15 36l3.603 2.368a5 5 0 005.102.233l2.514-1.343a5 5 0 014.711 0l2.778 1.484a5 5 0 004.711 0l2.848-1.521a5 5 0 014.601-.057l3.327 1.672a5 5 0 004.602-.057L59 36M15 51l3.603 2.368a5 5 0 005.102.233l2.514-1.343a5 5 0 014.711 0l2.778 1.484a5 5 0 004.711 0l2.848-1.521a5 5 0 014.601-.057l3.327 1.672a5 5 0 004.602-.057L59 51" stroke="#fff" stroke-width="3" stroke-linecap="round" stroke-linejoin="round"/></svg></svg>